HIERARCHY
ROOT Hips
{
	OFFSET 0.00000 0.00000 0.00000
	CHANNELS 6 Xposition Yposition Zposition Yrotation Zrotation Xrotation 
	JOINT Lumbar
	{
		OFFSET 0 0 0
		CHANNELS 3 Zrotation Xrotation Yrotation
		JOINT Neck
		{
			OFFSET 0.00 0.2701 0.00
			CHANNELS 3 Zrotation Xrotation Yrotation
			End Site
			{
				OFFSET 0.00 0.1379 0.00
			}
		}
		JOINT RightShoulder
		{
			OFFSET 0.0119 0.2289 0.1181
			CHANNELS 3 Zrotation Xrotation Yrotation
			JOINT RightElbow
			{
				OFFSET 0.00 -0.1475 0.00
				CHANNELS 2 Zrotation Yrotation
				JOINT RightWrist
				{
					OFFSET 0.00 -0.1605 0.00
					CHANNELS 2 Zrotation Xrotation
					End Site
					{
						OFFSET 0.0040 -0.1068 0.0006
					}
				}
			}
		}
		JOINT LeftShoulder
		{
			OFFSET 0.0119 0.2289 -0.1181
			CHANNELS 3 Zrotation Xrotation Yrotation
			JOINT LeftElbow
			{
				OFFSET 0.00 -0.1475 0.00
				CHANNELS 2 Zrotation Yrotation
				JOINT LeftWrist
				{
					OFFSET 0.00 -0.1605 0.00
					CHANNELS 2 Zrotation Xrotation
					End Site
					{
						OFFSET 0.0040 -0.1068 -0.0006
					}
				}
			}
		}
	}
	JOINT RightHip
	{
		OFFSET 0.0316 -0.0424 0.0458
		CHANNELS 3 Zrotation Xrotation Yrotation
		JOINT RightKnee
		{
			OFFSET 0.00 -0.2438 0.00
			CHANNELS 1 Zrotation
			JOINT RightAnkle
			{
				OFFSET 0.00 -0.2449 0.00
				CHANNELS 3 Zrotation Xrotation Yrotation
				End Site
				{
					OFFSET 0.1237 -0.0542 0.0051
				}
			}
		}
	}
	JOINT LeftHip
	{
		OFFSET 0.0316 -0.0424 -0.0458
		CHANNELS 3 Zrotation Xrotation Yrotation
		JOINT LeftKnee
		{
			OFFSET 0.00 -0.2438 0.00
			CHANNELS 1 Zrotation
			JOINT LeftAnkle
			{
				OFFSET 0.00 -0.2449 0.00
				CHANNELS 3 Zrotation Xrotation Yrotation
				End Site
				{
					OFFSET 0.1237 -0.0542 -0.0051
				}
			}
		}
	}
}
MOTION
Frames: 31
Frame Time: 0.02
0.00059 0.00011 2e-05 -168.14277 -41.93916 0.53927 49.39487 1.57816 -6.94525 11.25257 -2.35247 -0.32731 4.37724 -15.74183 9.33179 41.91387 65.68697 -1.35764 -3.53686 7.8622 10.55127 -4.74221 46.63721 -93.42684 6.42386 -1.5992 45.71261 -1.33242 -9.51192 -19.49325 -5.99187 -2.07247 -3.21793 49.46097 5.31712 4.86771 -24.45115 -6.438 1.3922 2.91089
0.00045 6e-05 -0.00028 -168.18673 -41.86792 0.54023 49.40442 1.61041 -6.71994 10.89302 -2.30005 -0.33058 3.02095 -15.25503 7.78972 41.36756 70.50151 -0.15401 -2.60188 6.22093 10.57409 -4.17099 46.56481 -93.595 6.5567 -1.63715 45.62462 -1.34335 -9.71518 -19.50595 -5.99464 -2.04739 -3.20457 49.35547 5.37194 5.01382 -24.44757 -6.4406 1.3844 2.90718
0.00031 1e-05 -0.00057 -168.23049 -41.79679 0.54118 49.41391 1.6426 -6.49525 10.53402 -2.24773 -0.33397 1.66681 -14.76966 6.25164 40.82182 75.29545 1.04424 -1.6708 4.58169 10.59791 -3.6029 46.4924 -93.76037 6.68847 -1.67418 45.53677 -1.35421 -9.91786 -19.51863 -5.99741 -2.02238 -3.19125 49.25017 5.42664 5.15959 -24.444 -6.44318 1.37663 2.90349
0.00017 -3e-05 -0.00086 -168.2743 -41.72576 0.54213 49.42342 1.67476 -6.27061 10.1755 -2.19546 -0.33725 0.31437 -14.28437 4.7143 40.27701 80.09375 2.24376 -0.73895 2.945 10.62096 -3.03395 46.42019 -93.92711 6.82059 -1.71178 45.44903 -1.3651 -10.12051 -19.53129 -6.00018 -1.99737 -3.17793 49.14497 5.4813 5.30528 -24.44043 -6.44577 1.36885 2.89979
3e-05 -8e-05 -0.00116 -168.31835 -41.65465 0.54309 49.43301 1.70695 -6.04538 9.81663 -2.14313 -0.34038 -1.03945 -13.79759 3.17299 39.73207 84.91612 3.44963 0.1974 1.30737 10.64227 -2.46056 46.34806 -94.09897 6.95457 -1.75091 45.36121 -1.37606 -10.32368 -19.54397 -6.00296 -1.97231 -3.16457 49.03964 5.53605 5.45125 -24.43686 -6.44836 1.36104 2.89607
-0.00011 -0.00013 -0.00145 -168.36147 -41.58346 0.54403 49.44228 1.73916 -5.82185 9.45739 -2.09081 -0.3443 -2.39419 -13.3152 1.64161 39.18473 89.65085 4.63203 1.11752 -0.33516 10.67116 -1.90318 46.27505 -94.25155 7.08204 -1.78369 45.27331 -1.38673 -10.52531 -19.55665 -6.0057 -1.94739 -3.15132 48.93441 5.59065 5.59656 -24.43329 -6.45095 1.35335 2.89243
-0.00025 -0.00017 -0.00175 -168.40643 -41.51253 0.54501 49.45219 1.77128 -5.59513 9.0993 -2.03851 -0.34663 -3.74552 -12.82472 0.09276 38.64272 94.55283 5.85929 2.06859 -1.9659 10.68571 -1.31636 46.20393 -94.43878 7.22098 -1.82842 45.18565 -1.39798 -10.72988 -19.56931 -6.00851 -1.92219 -3.13786 48.82909 5.6455 5.74311 -24.42972 -6.45354 1.34542 2.88865
-0.00039 -0.00022 -0.00204 -168.44965 -41.44136 0.54596 49.46149 1.8035 -5.37138 8.74013 -1.98623 -0.3504 -5.10013 -12.34131 -1.44146 38.09599 99.30763 7.04713 2.99236 -3.60771 10.71174 -0.75277 46.13103 -94.60131 7.35205 -1.86359 45.09778 -1.40866 -10.93162 -19.58199 -6.01126 -1.89728 -3.12461 48.72387 5.70009 5.88838 -24.42614 -6.45613 1.33771 2.88499
-0.00053 -0.00027 -0.00233 -168.49093 -41.36986 0.54683 49.47011 1.8358 -5.15103 8.37949 -1.93381 -0.35608 -6.45912 -11.86789 -2.95273 37.54229 103.8555 8.17926 3.87807 -5.26348 10.75892 -0.23312 46.05601 -94.70453 7.46266 -1.88111 45.00955 -1.41876 -11.13046 -19.59471 -6.01394 -1.87262 -3.11158 48.61862 5.75453 6.03273 -24.4226 -6.45869 1.33028 2.8815
-0.00067 -0.00032 -0.00263 -168.54393 -41.30015 0.54804 49.48286 1.86755 -4.91043 8.02684 -1.88167 -0.35119 -7.79411 -11.34101 -4.58089 37.02507 109.51278 9.60929 4.96867 -6.84032 10.70587 0.49262 45.99334 -95.06141 7.65841 -1.98224 44.92309 -1.43256 -11.34769 -19.60727 -6.01703 -1.84621 -3.09714 48.51306 5.81034 6.18431 -24.41895 -6.46137 1.3213 2.87709
-0.0008 -0.00036 -0.00292 -168.57186 -41.22674 0.54859 49.48676 1.90051 -4.71303 7.65769 -1.82931 -0.36834 -9.17866 -10.9244 -5.97189 36.43334 112.88153 10.42537 5.63602 -8.58238 10.85042 0.8135 45.90454 -94.93932 7.69543 -1.91852 44.83312 -1.43833 -11.525 -19.62008 -6.01926 -1.82368 -3.08576 48.40849 5.86294 6.31936 -24.41548 -6.46383 1.31553 2.87457
-0.0009 -0.0004 -0.00317 -168.53298 -41.14219 0.54681 49.46709 1.9363 -4.631 7.23973 -1.77321 -0.44867 -10.71023 -10.83564 -6.62286 35.61461 109.46097 9.41536 5.0531 -10.79418 11.66209 -0.24624 45.74409 -93.00507 7.11275 -1.29902 44.73149 -1.42373 -11.60134 -19.63426 -6.019 -1.81046 -3.08222 48.30401 5.90921 6.41945 -24.41291 -6.46538 1.31919 2.87758
-0.00098 -0.00044 -0.0034 -168.46845 -41.05407 0.54446 49.43833 1.97342 -4.59271 6.80597 -1.71748 -0.55064 -12.28923 -10.85415 -7.04813 34.72534 103.8238 7.8116 4.05942 -13.16853 12.65276 -1.67121 45.55748 -90.66625 6.39913 -0.53037 44.62672 -1.40079 -11.63622 -19.64857 -6.01792 -1.80139 -3.08184 48.20104 5.95186 6.50121 -24.41042 -6.46679 1.32597 2.88241
-0.00106 -0.00048 -0.00364 -168.41448 -40.9683 0.54271 49.41338 2.01023 -4.53683 6.38154 -1.6636 -0.64093 -13.83982 -10.80544 -7.64027 33.88297 99.5502 6.57628 3.31459 -15.45831 13.47526 -2.74186 45.38273 -88.85789 5.87295 0.09891 44.52474 -1.38056 -11.68417 -19.66239 -6.01729 -1.79131 -3.08039 48.09909 5.99451 6.58426 -24.40764 -6.46845 1.33095 2.88618
-0.00117 -0.00052 -0.00387 -168.36548 -40.87962 0.53952 49.39011 2.04571 -4.47241 5.94743 -1.60113 -0.73903 -15.42086 -10.82976 -7.97749 32.97742 93.82179 4.93775 2.31562 -17.79511 14.64939 -4.57258 45.20771 -85.65082 4.82984 1.0192 44.41705 -1.36477 -11.75546 -19.67803 -6.0163 -1.77755 -3.07744 47.98989 6.04388 6.69611 -24.40601 -6.46925 1.33756 2.89096
-0.00122 -0.00055 -0.00411 -168.29954 -40.79593 0.53921 49.36074 2.08438 -4.43485 5.53044 -1.55674 -0.82604 -16.94796 -10.73386 -8.77084 32.18721 90.53103 3.98042 1.73709 -20.07061 15.15269 -4.95159 45.02747 -85.17921 4.80302 1.38317 44.32044 -1.33786 -11.76949 -19.68988 -6.01589 -1.77244 -3.07834 47.89619 6.07865 6.74473 -24.40192 -6.47187 1.34147 2.89403
-0.00114 -0.00053 -0.0044 -168.19715 -40.72861 0.54672 49.31989 2.13067 -4.47075 5.15959 -1.56133 -0.87648 -18.32674 -10.22447 -11.06562 31.72953 95.11114 5.20886 2.52282 -22.14981 13.59462 -0.84106 44.83603 -93.07775 7.87184 0.04772 44.25602 -1.28134 -11.62552 -19.69138 -6.0172 -1.79021 -3.08931 47.84502 6.07157 6.61325 -24.39179 -6.4791 1.33766 2.89214
-0.00101 -0.00049 -0.00471 -168.0775 -40.66605 0.5572 49.27224 2.18031 -4.52968 4.80803 -1.58425 -0.91513 -19.64548 -9.60103 -13.79435 31.39131 102.11887 7.11635 3.72819 -24.15735 11.38593 4.67374 44.6411 -103.61767 11.9232 -1.83043 44.2028 -1.21401 -11.4272 -19.68898 -6.01918 -1.81658 -3.10404 47.80963 6.05026 6.42013 -24.37912 -6.48827 1.33095 2.88845
-0.00089 -0.00046 -0.00501 -167.96356 -40.60023 0.56647 49.22612 2.22896 -4.57224 4.45021 -1.59938 -0.9596 -20.98601 -9.06554 -16.19965 31.00014 107.61318 8.60529 4.67243 -26.19174 9.58356 9.28434 44.44953 -112.46719 15.35189 -3.3754 44.14381 -1.15235 -11.26043 -19.68833 -6.0209 -1.83897 -3.11688 47.76664 6.03717 6.26248 -24.36701 -6.4968 1.32519 2.88543
-0.00081 -0.00043 -0.0053 -167.85919 -40.53913 0.5751 49.18781 2.2753 -4.64373 4.07891 -1.61234 -1.00285 -22.35893 -8.3798 -19.12212 30.59952 114.72607 10.52705 5.89393 -28.26389 7.32088 14.99019 44.24848 -123.33697 19.50629 -5.27521 44.08723 -1.08753 -11.06351 -19.68799 -6.0223 -1.86166 -3.13047 47.72447 6.01699 6.0749 -24.35706 -6.50419 1.32097 2.88303
-0.00063 -0.00039 -0.00561 -167.72928 -40.4691 0.58584 49.1298 2.32735 -4.65676 3.7434 -1.63405 -1.0456 -23.64006 -7.98044 -21.08321 30.24955 119.11783 11.72962 6.65009 -30.22828 5.85941 18.77195 44.06806 -130.67445 22.401 -6.57347 44.02879 -1.02642 -10.91676 -19.68578 -6.02466 -1.8859 -3.14349 47.68562 6.0077 5.93253 -24.34246 -6.51454 1.31296 2.87897
-0.00022 -0.00032 -0.00594 -167.54791 -40.37574 0.60114 49.03524 2.39325 -4.52897 3.47781 -1.67653 -1.08932 -24.7598 -8.38582 -20.19712 29.99622 115.02745 10.6679 5.95946 -31.99352 6.77846 16.73407 43.93226 -127.23713 21.42955 -6.02009 43.95922 -0.98225 -10.92545 -19.68259 -6.02855 -1.91067 -3.15279 47.64193 6.03707 5.95583 -24.31245 -6.53168 1.29371 2.87006
0.00031 -0.00024 -0.00629 -167.338 -40.27287 0.61865 48.91793 2.46487 -4.33635 3.25268 -1.72699 -1.13292 -25.77249 -9.08724 -18.34404 29.79256 108.19592 8.88254 4.79929 -33.63456 8.52585 12.74279 43.81893 -120.22239 19.18261 -4.85378 43.88853 -0.94177 -10.9869 -19.67758 -6.03362 -1.93701 -3.1616 47.60355 6.07715 6.02356 -24.27891 -6.55204 1.27078 2.85958
0.00082 -0.00016 -0.00664 -167.13254 -40.17262 0.63537 48.8007 2.53471 -4.15606 3.02431 -1.77304 -1.1768 -26.78582 -9.65936 -16.9937 29.5759 102.87584 7.50554 3.89476 -35.28152 9.88456 9.7556 43.7054 -115.0975 17.61943 -4.00717 43.81983 -0.89662 -11.02101 -19.67064 -6.03872 -1.96369 -3.17143 47.56857 6.10878 6.05226 -24.24845 -6.57133 1.25073 2.8504
0.00115 -0.0001 -0.00694 -166.96565 -40.07934 0.6509 48.7273 2.60164 -4.04922 2.73056 -1.82293 -1.21933 -28.00824 -10.19785 -15.39846 29.32361 96.51685 5.81775 2.82561 -37.14879 11.26365 6.32936 43.55362 -108.96357 15.65919 -3.00714 43.74313 -0.86255 -11.06397 -19.67305 -6.04122 -1.98618 -3.17803 47.50701 6.15431 6.15219 -24.20972 -6.58845 1.22634 2.83906
0.0019 1e-05 -0.00736 -166.70783 -39.96968 0.66988 48.55632 2.67539 -3.77334 2.58499 -1.86663 -1.26479 -28.75989 -10.88769 -14.0689 29.15493 91.63992 4.59475 1.98317 -38.5168 12.81633 3.33115 43.4817 -104.02996 14.19995 -2.17224 43.68535 -0.8079 -11.10604 -19.65828 -6.0497 -2.01769 -3.19118 47.5051 6.17455 6.12283 -24.18988 -6.61157 1.20908 2.83139
0.00372 0.00025 -0.00806 -166.24082 -39.81272 0.69368 48.1294 2.77131 -3.04987 2.81584 -1.89007 -1.31845 -28.3247 -11.84177 -13.7833 29.20974 91.50398 4.84367 1.87172 -38.6332 14.55516 2.02375 43.66723 -103.42457 14.52097 -1.9563 43.65683 -0.68268 -11.09499 -19.5741 -6.07198 -2.07361 -3.22265 47.63807 6.11326 5.65738 -24.20271 -6.64373 1.22246 2.83864
0.00597 0.00054 -0.00888 -165.67695 -39.64 0.7215 47.60348 2.87306 -2.15836 3.1984 -1.9072 -1.37506 -27.40106 -12.95329 -13.78073 29.34393 92.93889 5.57785 2.00285 -38.23106 16.45966 1.20187 43.92303 -104.11223 15.36992 -1.92257 43.65139 -0.53894 -11.08766 -19.47725 -6.10067 -2.13861 -3.26071 47.83545 6.02723 5.07174 -24.23904 -6.68274 1.24172 2.849
0.00806 0.0008 -0.00966 -165.13456 -39.47784 0.7504 47.11787 2.96891 -1.34075 3.52666 -1.92785 -1.43036 -26.64739 -14.0471 -13.60038 29.44004 93.66659 6.08154 2.02933 -38.0067 18.35164 0.13022 44.12062 -104.10292 15.91604 -1.79413 43.65094 -0.41233 -11.10484 -19.40047 -6.12807 -2.19939 -3.29558 48.02289 5.95937 4.58821 -24.27726 -6.72349 1.25117 2.8548
0.01 0.00109 -0.01036 -164.68604 -39.30263 0.76772 46.65173 3.07837 -0.52889 3.79534 -1.94583 -1.48567 -26.11947 -14.9255 -13.6015 29.55282 94.30256 6.61062 2.0225 -38.0333 20.00947 -0.88631 44.43571 -104.4292 16.68198 -1.69485 43.5863 -0.24963 -11.01692 -19.26178 -6.14877 -2.26034 -3.3311 48.13179 5.8654 3.91224 -24.26 -6.74531 1.28884 2.87305
0.01236 0.00133 -0.01127 -164.01971 -39.14893 0.8093 46.12121 3.16116 0.33098 4.22258 -1.96804 -1.54146 -24.99428 -16.28405 -13.29509 29.64103 95.49971 7.20115 2.14068 -37.40188 22.18066 -1.87633 44.51519 -104.41345 17.1343 -1.58612 43.65937 -0.15696 -11.14346 -19.25083 -6.18477 -2.32345 -3.36703 48.41588 5.81633 3.59979 -24.36678 -6.80633 1.27143 2.86711
